<svg class="svg-icon" style="width: 1em; height: 1em;vertical-align: middle;fill: currentColor;overflow: hidden;" viewBox="0 0 1024 1024" version="1.1" xmlns="http://www.w3.org/2000/svg"><path d="M944 768h-112V384A320.8 320.8 0 0 0 560 68V48a48 48 0 0 0-96 0v20A320.8 320.8 0 0 0 192 384v384H80a16 16 0 0 0-16 16v64a16 16 0 0 0 16 16h864a16 16 0 0 0 16-16v-64a16 16 0 0 0-16-16zM288 384a224 224 0 0 1 448 0v352H288zM592 928H432a16 16 0 0 0-16 16 80 80 0 0 0 80 80h32a80 80 0 0 0 80-80 16 16 0 0 0-16-16z" fill="" /><path d="M587.52 355.52h-151.04a16 16 0 0 0-13.76 24l75.52 130.72a16 16 0 0 0 27.52 0l75.52-130.72a16 16 0 0 0-13.76-24z" fill="" /><path d="M511.04 601.76m-34.72 0a34.72 34.72 0 1 0 69.44 0 34.72 34.72 0 1 0-69.44 0Z" fill="" /></svg>